<svg version="1.1" width="142" height="166" viewBox="22 19 142 166" xmlns="http://www.w3.org/2000/svg" xmlns:xlink="http://www.w3.org/1999/xlink">
  <!-- Exported by Scratch - http://scratch.mit.edu/ -->
  <g id="ID0.27587682055309415" transform="matrix(0.5753348469734192, 0, 0, 0.5753348469734192, -1, -47.55)">
    <path id="ID0.6493267426267266" fill="none" stroke="#003FFF" stroke-width="7" d="M 222 130 C 239.933 130 256.183 137.284 267.950 149.050 C 279.716 160.817 287 177.067 287 195 C 287 212.933 279.716 229.183 267.950 240.950 C 256.183 252.716 239.933 260 222 260 C 204.067 260 187.817 252.716 176.050 240.950 C 164.284 229.183 157 212.933 157 195 C 157 177.067 164.284 160.817 176.050 149.050 C 187.817 137.284 204.067 130 222 130 Z " transform="matrix(1, 0, 0, 1, 5, -11)"/>
    <path id="ID0.5234443573281169" fill="none" stroke="#FF0000" stroke-width="8" d="M 133.500 121 C 145.225 121 155.850 131.477 163.544 148.403 C 171.238 165.329 176 188.704 176 214.500 C 176 240.296 171.238 263.671 163.544 280.597 C 155.850 297.523 145.225 308 133.500 308 C 121.775 308 111.150 297.523 103.456 280.597 C 95.762 263.671 91 240.296 91 214.500 C 91 188.704 95.762 165.329 103.456 148.403 C 111.150 131.477 121.775 121 133.500 121 Z " transform="matrix(0.6757848262786865, -0.5024008750915527, 0.5966218709945679, 0.8025224804878235, 4.55, 80.25)"/>
  </g>
</svg>
