<?xml version="1.0" standalone="yes"?>

<svg version="1.1" viewBox="0.0 0.0 960.0 720.0" fill="none" stroke="none" stroke-linecap="square" stroke-miterlimit="10" xmlns="http://www.w3.org/2000/svg" xmlns:xlink="http://www.w3.org/1999/xlink"><clipPath id="p.0"><path d="m0 0l960.0 0l0 720.0l-960.0 0l0 -720.0z" clip-rule="nonzero"></path></clipPath><g clip-path="url(#p.0)"><path fill="#000000" fill-opacity="0.0" d="m0 0l960.0 0l0 720.0l-960.0 0z" fill-rule="evenodd"></path><path fill="#000000" fill-opacity="0.0" d="m313.69553 227.05511l271.87405 0l0 126.96063l-271.87405 0z" fill-rule="evenodd"></path><path fill="#b6d7a8" d="m383.5549 312.8551l-10.15625 0l0 -13.75l-35.703125 0l0 13.75l-10.15625 0l0 -28.015625q0 -6.125 2.109375 -11.28125q2.109375 -5.15625 5.859375 -8.859375q3.75 -3.71875 8.859375 -5.78125q5.125 -2.078125 11.1875 -2.078125l22.890625 0q1.046875 0 1.984375 0.390625q0.9375 0.390625 1.640625 1.09375q0.703125 0.703125 1.09375 1.640625q0.390625 0.9375 0.390625 1.984375l0 50.90625zm-45.859375 -23.90625l35.703125 0l0 -21.953125l-17.84375 0q-0.46875 0 -1.984375 0.140625q-1.5 0.125 -3.46875 0.671875q-1.96875 0.546875 -4.15625 1.6875q-2.1875 1.125 -4.03125 3.125q-1.828125 1.984375 -3.03125 4.984375q-1.1875 2.984375 -1.1875 7.234375l0 4.109375zm101.96094 -4.34375q0 2.109375 -0.75 4.5625q-0.734375 2.4375 -2.40625 4.53125q-1.65625 2.078125 -4.328125 3.484375q-2.671875 1.40625 -6.5 1.40625l-18.328125 0l0 -9.640625l18.328125 0q2.0625 0 3.1875 -1.265625q1.140625 -1.28125 1.140625 -3.15625q0 -1.984375 -1.265625 -3.109375q-1.265625 -1.140625 -3.0625 -1.140625l-18.328125 0q-2.0625 0 -3.203125 1.265625q-1.125 1.265625 -1.125 3.140625l0 14.1875q0 2.03125 1.265625 3.171875q1.265625 1.125 3.140625 1.125l18.25 0l0 9.6875l-18.328125 0q-2.109375 0 -4.546875 -0.734375q-2.4375 -0.75 -4.53125 -2.40625q-2.09375 -1.671875 -3.5 -4.34375q-1.40625 -2.671875 -1.40625 -6.5l0 -14.265625q0 -2.109375 0.734375 -4.546875q0.75 -2.4375 2.40625 -4.53125q1.671875 -2.09375 4.34375 -3.5q2.671875 -1.40625 6.5 -1.40625l18.328125 0q2.109375 0 4.546875 0.75q2.4375 0.734375 4.53125 2.40625q2.09375 1.65625 3.5 4.328125q1.40625 2.671875 1.40625 6.5zm46.828125 -10.859375q0.625 1.453125 0.328125 2.9375q-0.28125 1.484375 -1.34375 2.578125l-23.46875 23.4375l24.40625 0l0 10.15625l-36.640625 0q-1.5625 0 -2.828125 -0.875q-1.265625 -0.890625 -1.890625 -2.25q-0.59375 -1.453125 -0.296875 -2.953125q0.296875 -1.5 1.421875 -2.640625l23.359375 -23.359375l-24.40625 0l0 -10.15625l36.71875 0q1.515625 0 2.78125 0.828125q1.28125 0.8125 1.859375 2.296875zm26.648468 39.109375l-4.5312805 0q-2.1875 0 -4.671875 -0.734375q-2.484375 -0.75 -4.640625 -2.453125q-2.140625 -1.703125 -3.546875 -4.40625q-1.40625 -2.71875 -1.40625 -6.671875l0 -45.812485l10.15625 0l0 45.812485q0 1.875 1.171875 3.0q1.171875 1.109375 2.9375 1.109375l4.5312805 0l0 10.15625zm52.453125 -14.265625q0 2.625 -0.671875 4.71875q-0.65625 2.078125 -1.75 3.671875q-1.09375 1.578125 -2.546875 2.6875q-1.4375 1.109375 -3.015625 1.8125q-1.578125 0.703125 -3.203125 1.046875q-1.625 0.328125 -3.0625 0.328125l-18.328125 0q-2.109375 0 -4.609375 -0.734375q-2.5 -0.75 -4.625 -2.453125q-2.125 -1.703125 -3.5625 -4.40625q-1.421875 -2.71875 -1.421875 -6.671875l0 -13.75q0 -3.90625 1.421875 -6.609375q1.4375 -2.71875 3.5625 -4.421875q2.125 -1.703125 4.625 -2.4375q2.5 -0.75 4.609375 -0.75l18.328125 0q3.90625 0 6.640625 1.40625q2.734375 1.40625 4.40625 3.546875q1.6875 2.125 2.4375 4.625q0.765625 2.5 0.765625 4.640625l0 13.75zm-10.15625 -13.671875q0 -2.109375 -1.0625 -3.125q-1.046875 -1.015625 -3.03125 -1.015625l-18.25 0q-2.03125 0 -3.09375 1.046875q-1.046875 1.03125 -1.046875 3.015625l0 13.75q0 2.0 1.046875 3.0625q1.0625 1.046875 3.09375 1.046875l18.25 0q2.0625 0 3.078125 -1.046875q1.015625 -1.0625 1.015625 -3.0625l0 -13.671875z" fill-rule="nonzero"></path></g></svg>

